<?xml version="1.0" encoding="UTF-8" standalone="no"?>
<!-- Generator: Adobe Illustrator 18.1.0, SVG Export Plug-In . SVG Version: 6.00 Build 0)  -->

<svg
   xmlns:dc="http://purl.org/dc/elements/1.1/"
   xmlns:cc="http://creativecommons.org/ns#"
   xmlns:rdf="http://www.w3.org/1999/02/22-rdf-syntax-ns#"
   xmlns:svg="http://www.w3.org/2000/svg"
   xmlns="http://www.w3.org/2000/svg"
   xmlns:sodipodi="http://sodipodi.sourceforge.net/DTD/sodipodi-0.dtd"
   xmlns:inkscape="http://www.inkscape.org/namespaces/inkscape"
   version="1.1"
   id="List"
   x="0px"
   y="0px"
   viewBox="0 0 20 20"
   enable-background="new 0 0 20 20"
   xml:space="preserve"
   inkscape:version="0.91 r13725"
   sodipodi:docname="list.svg"><metadata
     id="metadata9"><rdf:RDF><cc:Work
         rdf:about=""><dc:format>image/svg+xml</dc:format><dc:type
           rdf:resource="http://purl.org/dc/dcmitype/StillImage" /></cc:Work></rdf:RDF></metadata><defs
     id="defs7" /><sodipodi:namedview
     pagecolor="#ffffff"
     bordercolor="#666666"
     borderopacity="1"
     objecttolerance="10"
     gridtolerance="10"
     guidetolerance="10"
     inkscape:pageopacity="0"
     inkscape:pageshadow="2"
     inkscape:window-width="727"
     inkscape:window-height="480"
     id="namedview5"
     showgrid="false"
     inkscape:zoom="11.8"
     inkscape:cx="10"
     inkscape:cy="10"
     inkscape:window-x="0"
     inkscape:window-y="24"
     inkscape:window-maximized="0"
     inkscape:current-layer="List" /><path
     d="M14.4,9H8.6C8.048,9,8,9.447,8,10s0.048,1,0.6,1H14.4c0.552,0,0.6-0.447,0.6-1S14.952,9,14.4,9z M16.4,14H8.6  C8.048,14,8,14.447,8,15s0.048,1,0.6,1H16.4c0.552,0,0.6-0.447,0.6-1S16.952,14,16.4,14z M8.6,6H16.4C16.952,6,17,5.553,17,5  s-0.048-1-0.6-1H8.6C8.048,4,8,4.447,8,5S8.048,6,8.6,6z M5.4,9H3.6C3.048,9,3,9.447,3,10s0.048,1,0.6,1H5.4C5.952,11,6,10.553,6,10  S5.952,9,5.4,9z M5.4,14H3.6C3.048,14,3,14.447,3,15s0.048,1,0.6,1H5.4C5.952,16,6,15.553,6,15S5.952,14,5.4,14z M5.4,4H3.6  C3.048,4,3,4.447,3,5s0.048,1,0.6,1H5.4C5.952,6,6,5.553,6,5S5.952,4,5.4,4z"
     id="path3"
     style="fill:#c2c3ca;fill-opacity:1" /></svg>